<mxfile host="app.diagrams.net" modified="2022-09-20T11:45:43.643Z" agent="5.0 (Windows NT 10.0; Win64; x64) AppleWebKit/537.36 (KHTML, like Gecko) Chrome/105.0.0.0 Safari/537.36" etag="xlc1zBYRo5N41W62K9N5" version="20.3.3" type="github">
  <diagram id="C5RBs43oDa-KdzZeNtuy" name="Page-1">
    <mxGraphModel dx="1278" dy="579" grid="1" gridSize="10" guides="1" tooltips="1" connect="1" arrows="1" fold="1" page="1" pageScale="1" pageWidth="827" pageHeight="1169" math="0" shadow="0">
      <root>
        <mxCell id="WIyWlLk6GJQsqaUBKTNV-0" />
        <mxCell id="WIyWlLk6GJQsqaUBKTNV-1" parent="WIyWlLk6GJQsqaUBKTNV-0" />
        <mxCell id="dYWO0wDx8CiqUn1xnQOm-0" value="&lt;font style=&quot;vertical-align: inherit;&quot;&gt;&lt;font style=&quot;vertical-align: inherit;&quot;&gt;Iniciar&lt;/font&gt;&lt;/font&gt;" style="rounded=1;whiteSpace=wrap;html=1;" vertex="1" parent="WIyWlLk6GJQsqaUBKTNV-1">
          <mxGeometry x="440" y="20" width="120" height="60" as="geometry" />
        </mxCell>
        <mxCell id="dYWO0wDx8CiqUn1xnQOm-2" value="" style="endArrow=classic;html=1;rounded=0;" edge="1" parent="WIyWlLk6GJQsqaUBKTNV-1">
          <mxGeometry width="50" height="50" relative="1" as="geometry">
            <mxPoint x="499.5" y="80" as="sourcePoint" />
            <mxPoint x="499.5" y="150" as="targetPoint" />
          </mxGeometry>
        </mxCell>
        <mxCell id="dYWO0wDx8CiqUn1xnQOm-11" style="edgeStyle=orthogonalEdgeStyle;rounded=0;orthogonalLoop=1;jettySize=auto;html=1;exitX=1;exitY=0.5;exitDx=0;exitDy=0;entryX=0.5;entryY=0;entryDx=0;entryDy=0;" edge="1" parent="WIyWlLk6GJQsqaUBKTNV-1" source="dYWO0wDx8CiqUn1xnQOm-4" target="dYWO0wDx8CiqUn1xnQOm-7">
          <mxGeometry relative="1" as="geometry" />
        </mxCell>
        <mxCell id="dYWO0wDx8CiqUn1xnQOm-4" value="&lt;font style=&quot;vertical-align: inherit;&quot;&gt;&lt;font style=&quot;vertical-align: inherit;&quot;&gt;expLogica&lt;/font&gt;&lt;/font&gt;" style="rhombus;whiteSpace=wrap;html=1;" vertex="1" parent="WIyWlLk6GJQsqaUBKTNV-1">
          <mxGeometry x="180" y="260" width="180" height="50" as="geometry" />
        </mxCell>
        <mxCell id="dYWO0wDx8CiqUn1xnQOm-6" value="" style="endArrow=classic;html=1;rounded=0;" edge="1" parent="WIyWlLk6GJQsqaUBKTNV-1">
          <mxGeometry width="50" height="50" relative="1" as="geometry">
            <mxPoint x="269.58000000000004" y="210" as="sourcePoint" />
            <mxPoint x="269.58000000000004" y="260" as="targetPoint" />
          </mxGeometry>
        </mxCell>
        <mxCell id="dYWO0wDx8CiqUn1xnQOm-22" style="edgeStyle=orthogonalEdgeStyle;rounded=0;orthogonalLoop=1;jettySize=auto;html=1;exitX=0.5;exitY=1;exitDx=0;exitDy=0;" edge="1" parent="WIyWlLk6GJQsqaUBKTNV-1" source="dYWO0wDx8CiqUn1xnQOm-7">
          <mxGeometry relative="1" as="geometry">
            <mxPoint x="270" y="420" as="targetPoint" />
          </mxGeometry>
        </mxCell>
        <mxCell id="dYWO0wDx8CiqUn1xnQOm-7" value="&lt;font style=&quot;vertical-align: inherit;&quot;&gt;&lt;font style=&quot;vertical-align: inherit;&quot;&gt;acciones A&lt;/font&gt;&lt;/font&gt;" style="rounded=0;whiteSpace=wrap;html=1;" vertex="1" parent="WIyWlLk6GJQsqaUBKTNV-1">
          <mxGeometry x="384" y="360" width="110" height="20" as="geometry" />
        </mxCell>
        <mxCell id="dYWO0wDx8CiqUn1xnQOm-8" style="edgeStyle=orthogonalEdgeStyle;rounded=0;orthogonalLoop=1;jettySize=auto;html=1;exitX=0.5;exitY=1;exitDx=0;exitDy=0;" edge="1" parent="WIyWlLk6GJQsqaUBKTNV-1" source="dYWO0wDx8CiqUn1xnQOm-4" target="dYWO0wDx8CiqUn1xnQOm-4">
          <mxGeometry relative="1" as="geometry" />
        </mxCell>
        <mxCell id="dYWO0wDx8CiqUn1xnQOm-9" style="edgeStyle=orthogonalEdgeStyle;rounded=0;orthogonalLoop=1;jettySize=auto;html=1;exitX=0.5;exitY=1;exitDx=0;exitDy=0;" edge="1" parent="WIyWlLk6GJQsqaUBKTNV-1" source="dYWO0wDx8CiqUn1xnQOm-4" target="dYWO0wDx8CiqUn1xnQOm-4">
          <mxGeometry relative="1" as="geometry" />
        </mxCell>
        <mxCell id="dYWO0wDx8CiqUn1xnQOm-15" value="&lt;font style=&quot;vertical-align: inherit;&quot;&gt;&lt;font style=&quot;vertical-align: inherit;&quot;&gt;Verdadero&lt;br&gt;&lt;/font&gt;&lt;/font&gt;" style="text;html=1;align=center;verticalAlign=middle;resizable=0;points=[];autosize=1;strokeColor=none;fillColor=none;" vertex="1" parent="WIyWlLk6GJQsqaUBKTNV-1">
          <mxGeometry x="350" y="260" width="80" height="30" as="geometry" />
        </mxCell>
        <mxCell id="dYWO0wDx8CiqUn1xnQOm-21" value="&lt;font style=&quot;vertical-align: inherit;&quot;&gt;&lt;font style=&quot;vertical-align: inherit;&quot;&gt;Falso&lt;/font&gt;&lt;/font&gt;" style="text;html=1;align=center;verticalAlign=middle;resizable=0;points=[];autosize=1;strokeColor=none;fillColor=none;" vertex="1" parent="WIyWlLk6GJQsqaUBKTNV-1">
          <mxGeometry x="140" y="260" width="50" height="30" as="geometry" />
        </mxCell>
        <mxCell id="dYWO0wDx8CiqUn1xnQOm-25" value="" style="endArrow=none;html=1;rounded=0;" edge="1" parent="WIyWlLk6GJQsqaUBKTNV-1">
          <mxGeometry width="50" height="50" relative="1" as="geometry">
            <mxPoint x="100" y="400" as="sourcePoint" />
            <mxPoint x="250" y="400" as="targetPoint" />
          </mxGeometry>
        </mxCell>
        <mxCell id="dYWO0wDx8CiqUn1xnQOm-29" value="" style="endArrow=none;html=1;rounded=0;" edge="1" parent="WIyWlLk6GJQsqaUBKTNV-1">
          <mxGeometry width="50" height="50" relative="1" as="geometry">
            <mxPoint x="250" y="400" as="sourcePoint" />
            <mxPoint x="270" y="400" as="targetPoint" />
          </mxGeometry>
        </mxCell>
        <mxCell id="dYWO0wDx8CiqUn1xnQOm-32" value="" style="endArrow=none;html=1;rounded=0;" edge="1" parent="WIyWlLk6GJQsqaUBKTNV-1">
          <mxGeometry width="50" height="50" relative="1" as="geometry">
            <mxPoint x="100" y="284.58000000000004" as="sourcePoint" />
            <mxPoint x="180" y="284.58000000000004" as="targetPoint" />
            <Array as="points">
              <mxPoint x="150" y="284.58000000000004" />
            </Array>
          </mxGeometry>
        </mxCell>
        <mxCell id="dYWO0wDx8CiqUn1xnQOm-34" value="" style="endArrow=none;html=1;rounded=0;" edge="1" parent="WIyWlLk6GJQsqaUBKTNV-1">
          <mxGeometry width="50" height="50" relative="1" as="geometry">
            <mxPoint x="100" y="340" as="sourcePoint" />
            <mxPoint x="100" y="400" as="targetPoint" />
            <Array as="points">
              <mxPoint x="100" y="280" />
            </Array>
          </mxGeometry>
        </mxCell>
        <mxCell id="dYWO0wDx8CiqUn1xnQOm-35" style="edgeStyle=orthogonalEdgeStyle;rounded=0;orthogonalLoop=1;jettySize=auto;html=1;exitX=1;exitY=0.5;exitDx=0;exitDy=0;entryX=0.5;entryY=0;entryDx=0;entryDy=0;" edge="1" parent="WIyWlLk6GJQsqaUBKTNV-1" source="dYWO0wDx8CiqUn1xnQOm-36" target="dYWO0wDx8CiqUn1xnQOm-39">
          <mxGeometry relative="1" as="geometry" />
        </mxCell>
        <mxCell id="dYWO0wDx8CiqUn1xnQOm-53" style="edgeStyle=orthogonalEdgeStyle;rounded=0;orthogonalLoop=1;jettySize=auto;html=1;exitX=0;exitY=0.5;exitDx=0;exitDy=0;entryX=0.089;entryY=-0.158;entryDx=0;entryDy=0;entryPerimeter=0;" edge="1" parent="WIyWlLk6GJQsqaUBKTNV-1" source="dYWO0wDx8CiqUn1xnQOm-36">
          <mxGeometry relative="1" as="geometry">
            <mxPoint x="419.7900000000001" y="506.84000000000015" as="targetPoint" />
          </mxGeometry>
        </mxCell>
        <mxCell id="dYWO0wDx8CiqUn1xnQOm-36" value="&lt;font style=&quot;vertical-align: inherit;&quot;&gt;&lt;font style=&quot;vertical-align: inherit;&quot;&gt;expLogica&lt;/font&gt;&lt;/font&gt;" style="rhombus;whiteSpace=wrap;html=1;" vertex="1" parent="WIyWlLk6GJQsqaUBKTNV-1">
          <mxGeometry x="490" y="410" width="176" height="50" as="geometry" />
        </mxCell>
        <mxCell id="dYWO0wDx8CiqUn1xnQOm-37" value="" style="endArrow=classic;html=1;rounded=0;" edge="1" parent="WIyWlLk6GJQsqaUBKTNV-1">
          <mxGeometry width="50" height="50" relative="1" as="geometry">
            <mxPoint x="575.58" y="360" as="sourcePoint" />
            <mxPoint x="575.58" y="410" as="targetPoint" />
          </mxGeometry>
        </mxCell>
        <mxCell id="dYWO0wDx8CiqUn1xnQOm-38" style="edgeStyle=orthogonalEdgeStyle;rounded=0;orthogonalLoop=1;jettySize=auto;html=1;exitX=0.5;exitY=1;exitDx=0;exitDy=0;" edge="1" parent="WIyWlLk6GJQsqaUBKTNV-1" source="dYWO0wDx8CiqUn1xnQOm-39">
          <mxGeometry relative="1" as="geometry">
            <mxPoint x="576" y="570" as="targetPoint" />
          </mxGeometry>
        </mxCell>
        <mxCell id="dYWO0wDx8CiqUn1xnQOm-39" value="&lt;font style=&quot;vertical-align: inherit;&quot;&gt;&lt;font style=&quot;vertical-align: inherit;&quot;&gt;acciones A&lt;/font&gt;&lt;/font&gt;" style="rounded=0;whiteSpace=wrap;html=1;" vertex="1" parent="WIyWlLk6GJQsqaUBKTNV-1">
          <mxGeometry x="690" y="510" width="110" height="20" as="geometry" />
        </mxCell>
        <mxCell id="dYWO0wDx8CiqUn1xnQOm-40" style="edgeStyle=orthogonalEdgeStyle;rounded=0;orthogonalLoop=1;jettySize=auto;html=1;exitX=0.5;exitY=1;exitDx=0;exitDy=0;" edge="1" parent="WIyWlLk6GJQsqaUBKTNV-1" source="dYWO0wDx8CiqUn1xnQOm-36" target="dYWO0wDx8CiqUn1xnQOm-36">
          <mxGeometry relative="1" as="geometry" />
        </mxCell>
        <mxCell id="dYWO0wDx8CiqUn1xnQOm-41" style="edgeStyle=orthogonalEdgeStyle;rounded=0;orthogonalLoop=1;jettySize=auto;html=1;exitX=0.5;exitY=1;exitDx=0;exitDy=0;" edge="1" parent="WIyWlLk6GJQsqaUBKTNV-1" source="dYWO0wDx8CiqUn1xnQOm-36" target="dYWO0wDx8CiqUn1xnQOm-36">
          <mxGeometry relative="1" as="geometry" />
        </mxCell>
        <mxCell id="dYWO0wDx8CiqUn1xnQOm-42" value="&lt;font style=&quot;vertical-align: inherit;&quot;&gt;&lt;font style=&quot;vertical-align: inherit;&quot;&gt;Verdadero&lt;br&gt;&lt;/font&gt;&lt;/font&gt;" style="text;html=1;align=center;verticalAlign=middle;resizable=0;points=[];autosize=1;strokeColor=none;fillColor=none;" vertex="1" parent="WIyWlLk6GJQsqaUBKTNV-1">
          <mxGeometry x="656" y="410" width="80" height="30" as="geometry" />
        </mxCell>
        <mxCell id="dYWO0wDx8CiqUn1xnQOm-43" value="&lt;font style=&quot;vertical-align: inherit;&quot;&gt;&lt;font style=&quot;vertical-align: inherit;&quot;&gt;Falso&lt;/font&gt;&lt;/font&gt;" style="text;html=1;align=center;verticalAlign=middle;resizable=0;points=[];autosize=1;strokeColor=none;fillColor=none;" vertex="1" parent="WIyWlLk6GJQsqaUBKTNV-1">
          <mxGeometry x="440" y="410" width="50" height="30" as="geometry" />
        </mxCell>
        <mxCell id="dYWO0wDx8CiqUn1xnQOm-45" value="" style="endArrow=none;html=1;rounded=0;" edge="1" parent="WIyWlLk6GJQsqaUBKTNV-1">
          <mxGeometry width="50" height="50" relative="1" as="geometry">
            <mxPoint x="556" y="550" as="sourcePoint" />
            <mxPoint x="576" y="550" as="targetPoint" />
          </mxGeometry>
        </mxCell>
        <mxCell id="dYWO0wDx8CiqUn1xnQOm-54" value="&lt;font style=&quot;vertical-align: inherit;&quot;&gt;&lt;font style=&quot;vertical-align: inherit;&quot;&gt;acciones B&lt;/font&gt;&lt;/font&gt;" style="rounded=0;whiteSpace=wrap;html=1;" vertex="1" parent="WIyWlLk6GJQsqaUBKTNV-1">
          <mxGeometry x="360" y="510" width="120" height="20" as="geometry" />
        </mxCell>
        <mxCell id="dYWO0wDx8CiqUn1xnQOm-57" style="edgeStyle=orthogonalEdgeStyle;rounded=0;orthogonalLoop=1;jettySize=auto;html=1;exitX=0.5;exitY=1;exitDx=0;exitDy=0;" edge="1" parent="WIyWlLk6GJQsqaUBKTNV-1" source="dYWO0wDx8CiqUn1xnQOm-54" target="dYWO0wDx8CiqUn1xnQOm-54">
          <mxGeometry relative="1" as="geometry" />
        </mxCell>
        <mxCell id="dYWO0wDx8CiqUn1xnQOm-60" value="" style="endArrow=none;html=1;rounded=0;" edge="1" parent="WIyWlLk6GJQsqaUBKTNV-1">
          <mxGeometry width="50" height="50" relative="1" as="geometry">
            <mxPoint x="420" y="550" as="sourcePoint" />
            <mxPoint x="560" y="550" as="targetPoint" />
            <Array as="points">
              <mxPoint x="520" y="550" />
            </Array>
          </mxGeometry>
        </mxCell>
        <mxCell id="dYWO0wDx8CiqUn1xnQOm-61" value="" style="endArrow=none;html=1;rounded=0;" edge="1" parent="WIyWlLk6GJQsqaUBKTNV-1">
          <mxGeometry width="50" height="50" relative="1" as="geometry">
            <mxPoint x="419.58000000000004" y="550" as="sourcePoint" />
            <mxPoint x="419.58000000000004" y="530" as="targetPoint" />
          </mxGeometry>
        </mxCell>
        <mxCell id="dYWO0wDx8CiqUn1xnQOm-62" value="" style="rounded=0;whiteSpace=wrap;html=1;" vertex="1" parent="WIyWlLk6GJQsqaUBKTNV-1">
          <mxGeometry x="250" y="680" width="320" height="40" as="geometry" />
        </mxCell>
        <mxCell id="dYWO0wDx8CiqUn1xnQOm-65" value="" style="endArrow=none;html=1;rounded=0;" edge="1" parent="WIyWlLk6GJQsqaUBKTNV-1">
          <mxGeometry width="50" height="50" relative="1" as="geometry">
            <mxPoint x="330" y="720" as="sourcePoint" />
            <mxPoint x="330" y="680" as="targetPoint" />
            <Array as="points">
              <mxPoint x="330" y="700" />
            </Array>
          </mxGeometry>
        </mxCell>
        <mxCell id="dYWO0wDx8CiqUn1xnQOm-66" value="" style="endArrow=none;html=1;rounded=0;" edge="1" parent="WIyWlLk6GJQsqaUBKTNV-1">
          <mxGeometry width="50" height="50" relative="1" as="geometry">
            <mxPoint x="410" y="720" as="sourcePoint" />
            <mxPoint x="410" y="680" as="targetPoint" />
          </mxGeometry>
        </mxCell>
        <mxCell id="dYWO0wDx8CiqUn1xnQOm-67" value="" style="endArrow=none;html=1;rounded=0;" edge="1" parent="WIyWlLk6GJQsqaUBKTNV-1">
          <mxGeometry width="50" height="50" relative="1" as="geometry">
            <mxPoint x="490" y="720" as="sourcePoint" />
            <mxPoint x="490" y="680" as="targetPoint" />
          </mxGeometry>
        </mxCell>
        <mxCell id="dYWO0wDx8CiqUn1xnQOm-70" value="&lt;font style=&quot;vertical-align: inherit;&quot;&gt;&lt;font style=&quot;vertical-align: inherit;&quot;&gt;&lt;font style=&quot;vertical-align: inherit;&quot;&gt;&lt;font style=&quot;vertical-align: inherit;&quot;&gt;1&lt;br&gt;&lt;/font&gt;&lt;/font&gt;&lt;/font&gt;&lt;/font&gt;" style="text;html=1;align=center;verticalAlign=middle;resizable=0;points=[];autosize=1;strokeColor=none;fillColor=none;" vertex="1" parent="WIyWlLk6GJQsqaUBKTNV-1">
          <mxGeometry x="274" y="685" width="30" height="30" as="geometry" />
        </mxCell>
        <mxCell id="dYWO0wDx8CiqUn1xnQOm-71" value="&lt;font style=&quot;vertical-align: inherit;&quot;&gt;&lt;font style=&quot;vertical-align: inherit;&quot;&gt;&lt;font style=&quot;vertical-align: inherit;&quot;&gt;&lt;font style=&quot;vertical-align: inherit;&quot;&gt;2&lt;/font&gt;&lt;/font&gt;&lt;/font&gt;&lt;/font&gt;" style="text;html=1;align=center;verticalAlign=middle;resizable=0;points=[];autosize=1;strokeColor=none;fillColor=none;" vertex="1" parent="WIyWlLk6GJQsqaUBKTNV-1">
          <mxGeometry x="354" y="685" width="30" height="30" as="geometry" />
        </mxCell>
        <mxCell id="dYWO0wDx8CiqUn1xnQOm-72" value="&lt;font style=&quot;vertical-align: inherit;&quot;&gt;&lt;font style=&quot;vertical-align: inherit;&quot;&gt;3,4&lt;/font&gt;&lt;/font&gt;" style="text;html=1;align=center;verticalAlign=middle;resizable=0;points=[];autosize=1;strokeColor=none;fillColor=none;" vertex="1" parent="WIyWlLk6GJQsqaUBKTNV-1">
          <mxGeometry x="430" y="685" width="40" height="30" as="geometry" />
        </mxCell>
        <mxCell id="dYWO0wDx8CiqUn1xnQOm-73" value="&lt;font style=&quot;vertical-align: inherit;&quot;&gt;&lt;font style=&quot;vertical-align: inherit;&quot;&gt;de otro&lt;br&gt;modo&lt;br&gt;&lt;/font&gt;&lt;/font&gt;" style="text;html=1;align=center;verticalAlign=middle;resizable=0;points=[];autosize=1;strokeColor=none;fillColor=none;" vertex="1" parent="WIyWlLk6GJQsqaUBKTNV-1">
          <mxGeometry x="500" y="680" width="60" height="40" as="geometry" />
        </mxCell>
        <mxCell id="dYWO0wDx8CiqUn1xnQOm-74" value="" style="rounded=0;whiteSpace=wrap;html=1;" vertex="1" parent="WIyWlLk6GJQsqaUBKTNV-1">
          <mxGeometry x="250" y="760" width="70" height="30" as="geometry" />
        </mxCell>
        <mxCell id="dYWO0wDx8CiqUn1xnQOm-75" value="" style="rounded=0;whiteSpace=wrap;html=1;" vertex="1" parent="WIyWlLk6GJQsqaUBKTNV-1">
          <mxGeometry x="334" y="760" width="70" height="30" as="geometry" />
        </mxCell>
        <mxCell id="dYWO0wDx8CiqUn1xnQOm-76" value="" style="rounded=0;whiteSpace=wrap;html=1;" vertex="1" parent="WIyWlLk6GJQsqaUBKTNV-1">
          <mxGeometry x="415" y="760" width="70" height="30" as="geometry" />
        </mxCell>
        <mxCell id="dYWO0wDx8CiqUn1xnQOm-77" value="" style="rounded=0;whiteSpace=wrap;html=1;" vertex="1" parent="WIyWlLk6GJQsqaUBKTNV-1">
          <mxGeometry x="495" y="760" width="70" height="30" as="geometry" />
        </mxCell>
        <mxCell id="dYWO0wDx8CiqUn1xnQOm-81" value="" style="endArrow=classic;html=1;rounded=0;" edge="1" parent="WIyWlLk6GJQsqaUBKTNV-1">
          <mxGeometry width="50" height="50" relative="1" as="geometry">
            <mxPoint x="288.58" y="720" as="sourcePoint" />
            <mxPoint x="288.58" y="760" as="targetPoint" />
          </mxGeometry>
        </mxCell>
        <mxCell id="dYWO0wDx8CiqUn1xnQOm-83" value="" style="endArrow=classic;html=1;rounded=0;" edge="1" parent="WIyWlLk6GJQsqaUBKTNV-1">
          <mxGeometry width="50" height="50" relative="1" as="geometry">
            <mxPoint x="369.16999999999996" y="720" as="sourcePoint" />
            <mxPoint x="369.16999999999996" y="760" as="targetPoint" />
          </mxGeometry>
        </mxCell>
        <mxCell id="dYWO0wDx8CiqUn1xnQOm-85" value="" style="endArrow=classic;html=1;rounded=0;" edge="1" parent="WIyWlLk6GJQsqaUBKTNV-1">
          <mxGeometry width="50" height="50" relative="1" as="geometry">
            <mxPoint x="449.5799999999999" y="720" as="sourcePoint" />
            <mxPoint x="449.5799999999999" y="760" as="targetPoint" />
          </mxGeometry>
        </mxCell>
        <mxCell id="dYWO0wDx8CiqUn1xnQOm-86" value="" style="endArrow=classic;html=1;rounded=0;" edge="1" parent="WIyWlLk6GJQsqaUBKTNV-1">
          <mxGeometry width="50" height="50" relative="1" as="geometry">
            <mxPoint x="529.5799999999999" y="720" as="sourcePoint" />
            <mxPoint x="529.5799999999999" y="760" as="targetPoint" />
          </mxGeometry>
        </mxCell>
        <mxCell id="dYWO0wDx8CiqUn1xnQOm-87" value="V" style="text;html=1;align=center;verticalAlign=middle;resizable=0;points=[];autosize=1;strokeColor=none;fillColor=none;" vertex="1" parent="WIyWlLk6GJQsqaUBKTNV-1">
          <mxGeometry x="398" y="635" width="30" height="30" as="geometry" />
        </mxCell>
        <mxCell id="dYWO0wDx8CiqUn1xnQOm-90" value="" style="endArrow=none;html=1;rounded=0;" edge="1" parent="WIyWlLk6GJQsqaUBKTNV-1">
          <mxGeometry width="50" height="50" relative="1" as="geometry">
            <mxPoint x="250" y="680" as="sourcePoint" />
            <mxPoint x="414" y="625" as="targetPoint" />
          </mxGeometry>
        </mxCell>
        <mxCell id="dYWO0wDx8CiqUn1xnQOm-91" value="" style="endArrow=none;html=1;rounded=0;" edge="1" parent="WIyWlLk6GJQsqaUBKTNV-1">
          <mxGeometry width="50" height="50" relative="1" as="geometry">
            <mxPoint x="570" y="680" as="sourcePoint" />
            <mxPoint x="414" y="625" as="targetPoint" />
          </mxGeometry>
        </mxCell>
        <mxCell id="dYWO0wDx8CiqUn1xnQOm-92" value="" style="endArrow=classic;html=1;rounded=0;" edge="1" parent="WIyWlLk6GJQsqaUBKTNV-1">
          <mxGeometry width="50" height="50" relative="1" as="geometry">
            <mxPoint x="412.58" y="585" as="sourcePoint" />
            <mxPoint x="412.58" y="625" as="targetPoint" />
            <Array as="points">
              <mxPoint x="412.58" y="605" />
            </Array>
          </mxGeometry>
        </mxCell>
        <mxCell id="dYWO0wDx8CiqUn1xnQOm-93" value="" style="endArrow=none;html=1;rounded=0;" edge="1" parent="WIyWlLk6GJQsqaUBKTNV-1">
          <mxGeometry width="50" height="50" relative="1" as="geometry">
            <mxPoint x="289" y="815" as="sourcePoint" />
            <mxPoint x="288.58" y="790" as="targetPoint" />
          </mxGeometry>
        </mxCell>
        <mxCell id="dYWO0wDx8CiqUn1xnQOm-94" value="" style="endArrow=none;html=1;rounded=0;" edge="1" parent="WIyWlLk6GJQsqaUBKTNV-1">
          <mxGeometry width="50" height="50" relative="1" as="geometry">
            <mxPoint x="369" y="815" as="sourcePoint" />
            <mxPoint x="368.5799999999999" y="790" as="targetPoint" />
          </mxGeometry>
        </mxCell>
        <mxCell id="dYWO0wDx8CiqUn1xnQOm-95" value="" style="endArrow=none;html=1;rounded=0;" edge="1" parent="WIyWlLk6GJQsqaUBKTNV-1">
          <mxGeometry width="50" height="50" relative="1" as="geometry">
            <mxPoint x="450" y="815" as="sourcePoint" />
            <mxPoint x="449.5799999999999" y="790" as="targetPoint" />
          </mxGeometry>
        </mxCell>
        <mxCell id="dYWO0wDx8CiqUn1xnQOm-96" value="" style="endArrow=none;html=1;rounded=0;" edge="1" parent="WIyWlLk6GJQsqaUBKTNV-1">
          <mxGeometry width="50" height="50" relative="1" as="geometry">
            <mxPoint x="530" y="815" as="sourcePoint" />
            <mxPoint x="529.5799999999999" y="790" as="targetPoint" />
          </mxGeometry>
        </mxCell>
        <mxCell id="dYWO0wDx8CiqUn1xnQOm-97" value="" style="endArrow=none;html=1;rounded=0;" edge="1" parent="WIyWlLk6GJQsqaUBKTNV-1">
          <mxGeometry width="50" height="50" relative="1" as="geometry">
            <mxPoint x="288" y="815" as="sourcePoint" />
            <mxPoint x="534" y="815" as="targetPoint" />
          </mxGeometry>
        </mxCell>
        <mxCell id="dYWO0wDx8CiqUn1xnQOm-98" value="A" style="text;html=1;align=center;verticalAlign=middle;resizable=0;points=[];autosize=1;strokeColor=none;fillColor=none;" vertex="1" parent="WIyWlLk6GJQsqaUBKTNV-1">
          <mxGeometry x="274" y="760" width="30" height="30" as="geometry" />
        </mxCell>
        <mxCell id="dYWO0wDx8CiqUn1xnQOm-99" value="B" style="text;html=1;align=center;verticalAlign=middle;resizable=0;points=[];autosize=1;strokeColor=none;fillColor=none;" vertex="1" parent="WIyWlLk6GJQsqaUBKTNV-1">
          <mxGeometry x="354" y="760" width="30" height="30" as="geometry" />
        </mxCell>
        <mxCell id="dYWO0wDx8CiqUn1xnQOm-100" value="C" style="text;html=1;align=center;verticalAlign=middle;resizable=0;points=[];autosize=1;strokeColor=none;fillColor=none;" vertex="1" parent="WIyWlLk6GJQsqaUBKTNV-1">
          <mxGeometry x="434" y="760" width="30" height="30" as="geometry" />
        </mxCell>
        <mxCell id="dYWO0wDx8CiqUn1xnQOm-101" value="R" style="text;html=1;align=center;verticalAlign=middle;resizable=0;points=[];autosize=1;strokeColor=none;fillColor=none;" vertex="1" parent="WIyWlLk6GJQsqaUBKTNV-1">
          <mxGeometry x="515" y="760" width="30" height="30" as="geometry" />
        </mxCell>
        <mxCell id="dYWO0wDx8CiqUn1xnQOm-102" value="" style="endArrow=classic;html=1;rounded=0;" edge="1" parent="WIyWlLk6GJQsqaUBKTNV-1">
          <mxGeometry width="50" height="50" relative="1" as="geometry">
            <mxPoint x="415" y="815" as="sourcePoint" />
            <mxPoint x="415" y="855" as="targetPoint" />
          </mxGeometry>
        </mxCell>
        <mxCell id="dYWO0wDx8CiqUn1xnQOm-120" style="edgeStyle=orthogonalEdgeStyle;rounded=0;orthogonalLoop=1;jettySize=auto;html=1;exitX=1;exitY=0.5;exitDx=0;exitDy=0;" edge="1" parent="WIyWlLk6GJQsqaUBKTNV-1" source="dYWO0wDx8CiqUn1xnQOm-105">
          <mxGeometry relative="1" as="geometry">
            <mxPoint x="190" y="1160" as="targetPoint" />
            <Array as="points">
              <mxPoint x="320" y="955" />
              <mxPoint x="320" y="1070" />
              <mxPoint x="190" y="1070" />
            </Array>
          </mxGeometry>
        </mxCell>
        <mxCell id="dYWO0wDx8CiqUn1xnQOm-105" value="&lt;font style=&quot;vertical-align: inherit;&quot;&gt;&lt;font style=&quot;vertical-align: inherit;&quot;&gt;&amp;lt;expLogica&amp;gt;&lt;/font&gt;&lt;/font&gt;" style="rhombus;whiteSpace=wrap;html=1;" vertex="1" parent="WIyWlLk6GJQsqaUBKTNV-1">
          <mxGeometry x="101" y="930" width="180" height="50" as="geometry" />
        </mxCell>
        <mxCell id="dYWO0wDx8CiqUn1xnQOm-106" value="" style="endArrow=classic;html=1;rounded=0;" edge="1" parent="WIyWlLk6GJQsqaUBKTNV-1">
          <mxGeometry width="50" height="50" relative="1" as="geometry">
            <mxPoint x="190.57999999999993" y="880" as="sourcePoint" />
            <mxPoint x="190.57999999999993" y="930" as="targetPoint" />
          </mxGeometry>
        </mxCell>
        <mxCell id="dYWO0wDx8CiqUn1xnQOm-118" style="edgeStyle=orthogonalEdgeStyle;rounded=0;orthogonalLoop=1;jettySize=auto;html=1;exitX=0.5;exitY=1;exitDx=0;exitDy=0;entryX=0;entryY=0.5;entryDx=0;entryDy=0;" edge="1" parent="WIyWlLk6GJQsqaUBKTNV-1" source="dYWO0wDx8CiqUn1xnQOm-108" target="dYWO0wDx8CiqUn1xnQOm-105">
          <mxGeometry relative="1" as="geometry">
            <mxPoint x="70" y="950" as="targetPoint" />
          </mxGeometry>
        </mxCell>
        <mxCell id="dYWO0wDx8CiqUn1xnQOm-108" value="&amp;lt;acciones&amp;gt;" style="rounded=0;whiteSpace=wrap;html=1;" vertex="1" parent="WIyWlLk6GJQsqaUBKTNV-1">
          <mxGeometry x="136" y="1020" width="110" height="20" as="geometry" />
        </mxCell>
        <mxCell id="dYWO0wDx8CiqUn1xnQOm-109" style="edgeStyle=orthogonalEdgeStyle;rounded=0;orthogonalLoop=1;jettySize=auto;html=1;exitX=0.5;exitY=1;exitDx=0;exitDy=0;" edge="1" parent="WIyWlLk6GJQsqaUBKTNV-1" source="dYWO0wDx8CiqUn1xnQOm-105" target="dYWO0wDx8CiqUn1xnQOm-105">
          <mxGeometry relative="1" as="geometry" />
        </mxCell>
        <mxCell id="dYWO0wDx8CiqUn1xnQOm-110" style="edgeStyle=orthogonalEdgeStyle;rounded=0;orthogonalLoop=1;jettySize=auto;html=1;exitX=0.5;exitY=1;exitDx=0;exitDy=0;" edge="1" parent="WIyWlLk6GJQsqaUBKTNV-1" source="dYWO0wDx8CiqUn1xnQOm-105" target="dYWO0wDx8CiqUn1xnQOm-105">
          <mxGeometry relative="1" as="geometry" />
        </mxCell>
        <mxCell id="dYWO0wDx8CiqUn1xnQOm-111" value="&lt;font style=&quot;vertical-align: inherit;&quot;&gt;&lt;font style=&quot;vertical-align: inherit;&quot;&gt;&lt;br&gt;&lt;/font&gt;&lt;/font&gt;" style="text;html=1;align=center;verticalAlign=middle;resizable=0;points=[];autosize=1;strokeColor=none;fillColor=none;" vertex="1" parent="WIyWlLk6GJQsqaUBKTNV-1">
          <mxGeometry x="301" y="930" width="20" height="30" as="geometry" />
        </mxCell>
        <mxCell id="dYWO0wDx8CiqUn1xnQOm-112" value="&lt;font style=&quot;vertical-align: inherit;&quot;&gt;&lt;font style=&quot;vertical-align: inherit;&quot;&gt;Falso&lt;/font&gt;&lt;/font&gt;" style="text;html=1;align=center;verticalAlign=middle;resizable=0;points=[];autosize=1;strokeColor=none;fillColor=none;" vertex="1" parent="WIyWlLk6GJQsqaUBKTNV-1">
          <mxGeometry x="270" y="930" width="50" height="30" as="geometry" />
        </mxCell>
        <mxCell id="dYWO0wDx8CiqUn1xnQOm-117" value="" style="endArrow=classic;html=1;rounded=0;" edge="1" parent="WIyWlLk6GJQsqaUBKTNV-1">
          <mxGeometry width="50" height="50" relative="1" as="geometry">
            <mxPoint x="190.58" y="980" as="sourcePoint" />
            <mxPoint x="190.58" y="1020" as="targetPoint" />
            <Array as="points">
              <mxPoint x="190.58" y="1010" />
            </Array>
          </mxGeometry>
        </mxCell>
        <mxCell id="dYWO0wDx8CiqUn1xnQOm-136" style="edgeStyle=orthogonalEdgeStyle;rounded=0;orthogonalLoop=1;jettySize=auto;html=1;exitX=0;exitY=0.5;exitDx=0;exitDy=0;" edge="1" parent="WIyWlLk6GJQsqaUBKTNV-1" source="dYWO0wDx8CiqUn1xnQOm-122">
          <mxGeometry relative="1" as="geometry">
            <mxPoint x="590" y="910" as="targetPoint" />
            <Array as="points">
              <mxPoint x="450" y="1045" />
              <mxPoint x="450" y="910" />
            </Array>
          </mxGeometry>
        </mxCell>
        <mxCell id="dYWO0wDx8CiqUn1xnQOm-122" value="&lt;font style=&quot;vertical-align: inherit;&quot;&gt;&lt;font style=&quot;vertical-align: inherit;&quot;&gt;&amp;lt;expLogica&amp;gt;&lt;/font&gt;&lt;/font&gt;" style="rhombus;whiteSpace=wrap;html=1;" vertex="1" parent="WIyWlLk6GJQsqaUBKTNV-1">
          <mxGeometry x="500" y="1020" width="180" height="50" as="geometry" />
        </mxCell>
        <mxCell id="dYWO0wDx8CiqUn1xnQOm-125" value="&amp;lt;acciones&amp;gt;" style="rounded=0;whiteSpace=wrap;html=1;" vertex="1" parent="WIyWlLk6GJQsqaUBKTNV-1">
          <mxGeometry x="549" y="950" width="81" height="20" as="geometry" />
        </mxCell>
        <mxCell id="dYWO0wDx8CiqUn1xnQOm-126" style="edgeStyle=orthogonalEdgeStyle;rounded=0;orthogonalLoop=1;jettySize=auto;html=1;exitX=0.5;exitY=1;exitDx=0;exitDy=0;" edge="1" parent="WIyWlLk6GJQsqaUBKTNV-1" source="dYWO0wDx8CiqUn1xnQOm-122" target="dYWO0wDx8CiqUn1xnQOm-122">
          <mxGeometry relative="1" as="geometry" />
        </mxCell>
        <mxCell id="dYWO0wDx8CiqUn1xnQOm-127" style="edgeStyle=orthogonalEdgeStyle;rounded=0;orthogonalLoop=1;jettySize=auto;html=1;exitX=0.5;exitY=1;exitDx=0;exitDy=0;" edge="1" parent="WIyWlLk6GJQsqaUBKTNV-1" source="dYWO0wDx8CiqUn1xnQOm-122" target="dYWO0wDx8CiqUn1xnQOm-122">
          <mxGeometry relative="1" as="geometry" />
        </mxCell>
        <mxCell id="dYWO0wDx8CiqUn1xnQOm-128" value="&lt;font style=&quot;vertical-align: inherit;&quot;&gt;&lt;font style=&quot;vertical-align: inherit;&quot;&gt;&lt;br&gt;&lt;/font&gt;&lt;/font&gt;" style="text;html=1;align=center;verticalAlign=middle;resizable=0;points=[];autosize=1;strokeColor=none;fillColor=none;" vertex="1" parent="WIyWlLk6GJQsqaUBKTNV-1">
          <mxGeometry x="690" y="920" width="20" height="30" as="geometry" />
        </mxCell>
        <mxCell id="dYWO0wDx8CiqUn1xnQOm-129" value="&lt;font style=&quot;vertical-align: inherit;&quot;&gt;&lt;font style=&quot;vertical-align: inherit;&quot;&gt;Falso&lt;/font&gt;&lt;/font&gt;" style="text;html=1;align=center;verticalAlign=middle;resizable=0;points=[];autosize=1;strokeColor=none;fillColor=none;" vertex="1" parent="WIyWlLk6GJQsqaUBKTNV-1">
          <mxGeometry x="464" y="1020" width="50" height="30" as="geometry" />
        </mxCell>
        <mxCell id="dYWO0wDx8CiqUn1xnQOm-131" value="" style="endArrow=classic;html=1;rounded=0;" edge="1" parent="WIyWlLk6GJQsqaUBKTNV-1">
          <mxGeometry width="50" height="50" relative="1" as="geometry">
            <mxPoint x="589.58" y="1070" as="sourcePoint" />
            <mxPoint x="589.58" y="1110" as="targetPoint" />
          </mxGeometry>
        </mxCell>
        <mxCell id="dYWO0wDx8CiqUn1xnQOm-132" value="" style="endArrow=classic;html=1;rounded=0;" edge="1" parent="WIyWlLk6GJQsqaUBKTNV-1">
          <mxGeometry width="50" height="50" relative="1" as="geometry">
            <mxPoint x="590" y="970" as="sourcePoint" />
            <mxPoint x="590" y="1020" as="targetPoint" />
          </mxGeometry>
        </mxCell>
        <mxCell id="dYWO0wDx8CiqUn1xnQOm-133" value="" style="endArrow=classic;html=1;rounded=0;" edge="1" parent="WIyWlLk6GJQsqaUBKTNV-1">
          <mxGeometry width="50" height="50" relative="1" as="geometry">
            <mxPoint x="590.42" y="880" as="sourcePoint" />
            <mxPoint x="589.9999999999999" y="950" as="targetPoint" />
          </mxGeometry>
        </mxCell>
      </root>
    </mxGraphModel>
  </diagram>
</mxfile>
